<?xml version="1.0" standalone="no"?>
<!DOCTYPE svg PUBLIC "-//W3C//DTD SVG 20010904//EN"
 "http://www.w3.org/TR/2001/REC-SVG-20010904/DTD/svg10.dtd">
<svg version="1.0" xmlns="http://www.w3.org/2000/svg"
 width="586.000000pt" height="586.000000pt" viewBox="0 0 586.000000 586.000000"
 preserveAspectRatio="xMidYMid meet">
<metadata>
Created by potrace 1.14, written by Peter Selinger 2001-2017
</metadata>
<g transform="translate(0.000000,586.000000) scale(0.100000,-0.100000)"
fill="#000000" stroke="none">
<path d="M1821 4513 c-35 -197 -65 -368 -68 -380 l-5 -23 -492 0 -493 0 -17
-102 c-84 -485 -346 -1930 -351 -1938 -2 -4 -36 -5 -75 -3 -82 5 -78 10 -103
-132 -35 -192 -168 -934 -182 -1011 -8 -44 -15 -86 -15 -92 0 -9 604 -11 2553
-10 l2552 3 23 135 c13 74 61 354 106 622 l83 488 -36 -1 c-20 -1 -54 -1 -77
0 l-41 1 37 220 37 220 -64 0 c-61 0 -63 1 -58 23 2 12 34 189 70 392 36 204
68 382 71 398 5 26 8 27 68 27 l63 0 12 68 c6 37 63 366 126 732 64 366 118
677 121 693 l6 27 -1894 0 -1894 0 -63 -357z m3339 -79 c0 -17 -112 -649 -116
-656 -3 -5 -250 -8 -549 -8 l-543 0 -6 -27 c-14 -68 -76 -440 -76 -455 0 -17
29 -18 480 -18 l480 0 -6 -37 c-3 -21 -29 -164 -58 -318 l-51 -280 -483 -3
-482 -2 -5 -23 c-6 -23 -95 -515 -95 -523 0 -2 245 -4 545 -4 338 0 545 -4
545 -10 0 -5 -25 -151 -55 -325 -30 -174 -55 -321 -55 -326 0 -5 -396 -9 -970
-9 -533 0 -970 2 -970 5 0 3 29 169 65 370 36 200 65 369 65 375 0 7 -153 9
-492 8 l-492 -3 -63 -355 c-34 -195 -65 -365 -68 -377 l-5 -23 -487 0 -486 0
7 58 c4 31 33 201 64 377 l58 320 491 3 c380 2 492 5 495 15 3 6 34 177 69
380 l64 367 492 0 c320 0 493 3 493 10 0 8 98 567 124 713 l6 27 -493 -2 -492
-3 -7 -45 c-5 -25 -34 -191 -66 -370 l-58 -325 -493 -3 -493 -2 6 27 c10 46
126 706 126 715 0 4 223 8 495 8 293 0 495 4 495 9 0 5 29 174 65 375 36 201
65 368 65 371 0 3 657 5 1460 5 803 0 1460 -3 1460 -6z"/>
</g>
</svg>
