<?xml version="1.0" standalone="no"?>
<!DOCTYPE svg PUBLIC "-//W3C//DTD SVG 20010904//EN"
 "http://www.w3.org/TR/2001/REC-SVG-20010904/DTD/svg10.dtd">
<svg version="1.0" xmlns="http://www.w3.org/2000/svg"
 width="700.000000pt" height="700.000000pt" viewBox="0 0 700.000000 700.000000"
 preserveAspectRatio="xMidYMid meet">
<metadata>
Created by potrace 1.14, written by Peter Selinger 2001-2017
</metadata>
<g transform="translate(0.000000,700.000000) scale(0.100000,-0.100000)"
fill="#000000" stroke="none">
<path d="M3298 6705 c-2 -2 -37 -6 -80 -9 -42 -4 -91 -9 -110 -11 -18 -3 -51
-7 -73 -10 -64 -9 -97 -15 -145 -25 -25 -5 -56 -12 -70 -14 -114 -19 -389
-106 -550 -173 -75 -32 -290 -136 -345 -167 -629 -357 -1143 -943 -1403 -1601
-36 -91 -110 -309 -117 -345 -2 -8 -12 -51 -24 -95 -20 -78 -46 -219 -57 -300
-2 -22 -7 -51 -9 -65 -25 -156 -26 -641 -1 -767 3 -12 7 -48 11 -80 3 -32 8
-65 10 -73 2 -8 6 -33 10 -55 8 -57 51 -234 81 -335 125 -417 337 -810 618
-1145 87 -103 267 -284 366 -367 52 -44 104 -88 115 -97 142 -119 461 -310
685 -409 179 -80 462 -171 611 -197 18 -3 35 -7 38 -9 6 -4 47 -11 119 -21 20
-3 55 -8 77 -12 131 -20 252 -28 450 -27 159 0 313 7 371 18 10 2 46 7 79 10
93 11 298 54 430 92 248 71 446 155 705 297 59 32 263 163 295 190 11 8 67 53
125 98 124 98 357 327 462 455 250 305 440 643 563 1006 39 115 91 302 101
363 3 22 8 43 10 46 3 5 15 74 29 174 4 22 8 51 10 64 31 183 25 656 -11 861
-2 14 -8 52 -14 85 -22 133 -60 285 -112 445 -303 930 -1033 1684 -1956 2017
-238 85 -490 145 -717 169 -27 3 -66 8 -85 10 -39 6 -487 14 -492 9z m-758
-1395 c25 -30 47 -57 50 -60 3 -3 28 -32 55 -65 28 -33 52 -62 55 -65 3 -3 25
-30 50 -60 25 -30 52 -62 60 -70 8 -9 33 -38 55 -65 22 -27 54 -65 71 -85 17
-19 40 -46 52 -60 54 -65 438 -520 469 -554 39 -45 28 -51 123 64 34 41 79 95
100 120 21 25 93 110 160 190 67 80 139 165 160 190 21 25 64 77 96 115 32 39
61 72 64 75 3 3 50 59 105 125 54 66 105 126 113 134 7 8 38 45 69 82 30 38
58 69 62 69 4 0 57 -102 119 -227 318 -652 423 -865 507 -1038 163 -334 289
-592 440 -900 81 -165 172 -351 202 -414 l56 -115 -29 -23 c-16 -13 -60 -48
-99 -78 -63 -49 -562 -441 -650 -511 -60 -48 -41 -83 -191 356 -143 420 -212
622 -332 975 -72 209 -149 436 -172 505 -24 69 -46 129 -50 133 -4 5 -20 -9
-36 -31 -16 -21 -48 -61 -70 -88 -23 -27 -191 -233 -373 -459 -182 -225 -335
-410 -340 -410 -8 0 -61 63 -129 152 -12 16 -33 43 -46 59 -14 16 -157 197
-319 402 -163 205 -299 373 -304 373 -4 1 -30 -61 -56 -138 -77 -219 -112
-319 -162 -458 -26 -71 -64 -179 -85 -240 -52 -150 -143 -407 -170 -480 -12
-33 -23 -64 -24 -70 -2 -5 -6 -17 -9 -25 -3 -8 -38 -107 -77 -220 -40 -113
-83 -234 -96 -270 -13 -36 -24 -71 -24 -77 0 -34 -38 -11 -218 134 -108 87
-199 160 -202 163 -3 3 -27 23 -55 44 -27 22 -57 47 -67 55 -9 9 -31 27 -49
41 -37 28 -209 168 -222 180 -9 8 2 33 133 305 40 83 88 183 107 223 19 40 83
175 144 299 60 123 109 226 109 228 0 1 50 105 111 231 61 126 129 267 151
314 94 197 149 313 213 445 163 336 248 514 282 586 40 87 32 88 113 -11z"/>
</g>
</svg>
